<svg viewBox="0 0 40 42" fill="none" xmlns="http://www.w3.org/2000/svg" id="horror"><path stroke="#6C43F5" stroke-width="2" stroke-linecap="square" d="M17.006 39.995v-3.801m6.479 3.801v-3.801"></path><path d="M29.28 33.38l-.453-.892-.547.279v.613h1zm-18.32.001h1v-.613l-.546-.278-.453.891zm26.914-14.848c0 5.95-3.61 11.19-9.047 13.955l.907 1.783c6.013-3.059 10.14-8.935 10.14-15.738h-2zM20.119 2.52c9.9 0 17.755 7.259 17.755 16.012h2C39.874 8.496 30.935.52 20.119.52v2zM2.364 18.533C2.364 9.78 10.22 2.52 20.12 2.52v-2C9.303.521.364 8.496.364 18.533h2zm9.05 13.957c-5.438-2.766-9.05-8.006-9.05-13.957h-2c0 6.805 4.129 12.681 10.144 15.74l.906-1.783zm.547 6.506V33.38h-2v5.615h2zm1 1a1 1 0 0 1-1-1h-2a3 3 0 0 0 3 3v-2zm14.32 0H12.96v2h14.32v-2zm1-1a1 1 0 0 1-1 1v2a3 3 0 0 0 3-3h-2zm0-5.616v5.616h2V33.38h-2z" fill="#6C43F5"></path><path fill-rule="evenodd" clip-rule="evenodd" d="M16.457 21.259c0 2.417-1.958 4.394-4.37 4.394-2.413 0-4.371-1.977-4.371-4.394 0-2.435 1.958-4.395 4.37-4.395 2.413 0 4.371 1.96 4.371 4.395zm16.066 0c0 2.417-1.958 4.394-4.37 4.394-2.413 0-4.37-1.977-4.37-4.394 0-2.435 1.957-4.395 4.37-4.395 2.412 0 4.37 1.96 4.37 4.395z" stroke="#6C43F5" stroke-width="2" stroke-linecap="square"></path><path d="M17.525 30.08l1.065-2.538m4.123 2.538l-1.065-2.538" stroke="#6C43F5" stroke-width="2" stroke-linecap="square"></path></svg>