<svg viewBox="0 0 38 41" fill="none" xmlns="http://www.w3.org/2000/svg" id="latest"><path fill-rule="evenodd" clip-rule="evenodd" d="M27.545 21.19c-.019 5.963 2.87 9.357 9.445 9.495-6.101-.024-9.135 3.264-9.445 9.496-.052-5.873-2.67-9.5-9.444-9.496 6.063-.083 9.418-3.027 9.444-9.496zM5.766 13.987c-.012 3.23 1.556 5.068 5.117 5.144-3.305-.012-4.949 1.77-5.117 5.145C5.738 21.093 4.32 19.127.65 19.13c3.283-.045 5.104-1.64 5.116-5.144zM22.15.611c-.012 3.88 1.867 6.085 6.14 6.174-3.966-.015-5.939 2.123-6.14 6.173-.032-3.82-1.739-6.177-6.14-6.173 3.942-.052 6.124-1.968 6.14-6.174z" stroke="#5CC7FA" stroke-width="2"></path></svg>