<svg viewBox="0 0 44 43" fill="none" xmlns="http://www.w3.org/2000/svg" id="childrens"><path fill-rule="evenodd" clip-rule="evenodd" d="M8.722 7.154a.894.894 0 0 0-.891.896c0 .495.399.897.891.897a.894.894 0 0 0 .892-.897c0-.494-.4-.896-.892-.896z" fill="#6C43F5"></path><path d="M8.722 7.154a.894.894 0 0 0-.891.896c0 .495.399.897.891.897a.894.894 0 0 0 .892-.897c0-.494-.4-.896-.892-.896m1.994 25.35c1.46-4.364 6.486-8.319 11.38-8.319 4.888 0 9.776 3.816 11.218 8.364" stroke="#6C43F5" stroke-width="2"></path><path d="M5.825 30.848c1.941-5.378 6.315-8.903 6.315-8.903l-2.526-9.413-3.203 1.08a4.029 4.029 0 0 1-4.636-2.765c-.642-2.067.444-4.276 2.468-5.015l5.695-2.585a3.557 3.557 0 0 1 4.713 1.786l2.987 6.603h8.916c3.939 0 7.132 3.21 7.132 7.171v4.707c1.147.478 3.483 4.03 4.68 7.334M31.872 14.03l9.69 5.525" stroke="#6C43F5" stroke-width="2"></path><path fill-rule="evenodd" clip-rule="evenodd" d="M27.445 11.636h-9.807l1.783 7.172h6.241l1.783-7.172zm-5.349 29.582a49.439 49.439 0 0 1-18.208-3.444 3.593 3.593 0 0 1-2.02-4.647 3.565 3.565 0 0 1 4.622-2.031c9.929 3.912 21.262 3.917 31.19.009a3.556 3.556 0 0 1 4.62 2.033c.718 1.845-.185 3.925-2.021 4.645a49.41 49.41 0 0 1-18.183 3.435z" stroke="#6C43F5" stroke-width="2"></path><path d="M10.562 3.008l2.886-1.158c2.267-.91 4.84.18 5.772 2.445l3.026 7.34" stroke="#6C43F5" stroke-width="2"></path></svg>