<svg viewBox="0 0 43 44" fill="none" xmlns="http://www.w3.org/2000/svg" id="fantasy"><path fill-rule="evenodd" clip-rule="evenodd" d="M34.237 42.924l-3.445-24.245H11.846L8.401 42.924h10.335v-6.927a2.59 2.59 0 0 1 2.583-2.598 2.59 2.59 0 0 1 2.584 2.598v6.927h10.334z" stroke="#6C43F5" stroke-width="2" stroke-linecap="square"></path><path d="M20.888 3.094v9.956" stroke="#6C43F5" stroke-width="2" stroke-linecap="square"></path><path d="M20.888 3.825h-1v1.438l1.348-.5-.348-.938zm0-1.731l.348-.938-1.348-.5v1.438h1zm2.333.865l.348.938 2.525-.938-2.525-.937-.348.937zm-2.68.072l2.332.866.696-1.875-2.333-.866-.696 1.875zm2.332-1.01l-2.333.867.696 1.875 2.333-.866-.696-1.875zm-.985 1.804V2.094h-2v1.731h2z" fill="#6C43F5"></path><path d="M34.237 42.924h6.89V25.606h-5.168v3.464H32.3m-21.961 0h-3.66v-3.464H1.51v17.318H8.4" stroke="#6C43F5" stroke-width="2" stroke-linecap="square"></path><path fill-rule="evenodd" clip-rule="evenodd" d="M17.874 10.886v-.865H14.43v.865c0 1.434-.987 2.598-2.207 2.598-1.16 0-2.1-1.164-2.1-2.598v-.865H6.68v6.06a2.592 2.592 0 0 0 2.583 2.598h24.114a2.592 2.592 0 0 0 2.583-2.597V10.02h-3.445v.865a2.592 2.592 0 0 1-2.583 2.598 2.592 2.592 0 0 1-2.584-2.598v-.865h-3.444v.865c0 1.434-1.385 2.598-3.095 2.598-1.621 0-2.934-1.164-2.934-2.598z" stroke="#6C43F5" stroke-width="2" stroke-linecap="square"></path></svg>