<svg viewBox="0 0 37 40" fill="none" xmlns="http://www.w3.org/2000/svg" id="young-adult"><path d="M13.839 22.12v5.082l-9.08 3.244a5.44 5.44 0 0 0-3.61 5.12v3.42h34.444v-3.42a5.44 5.44 0 0 0-3.61-5.12l-9.08-3.244V22.12" stroke="#6C43F5" stroke-width="2"></path><path fill-rule="evenodd" clip-rule="evenodd" d="M27.435 12.7c0 6.006-4.06 10.877-9.064 10.877-5.007 0-9.065-4.871-9.065-10.877s4.058-10.877 9.065-10.877c5.005 0 9.064 4.871 9.064 10.877z" stroke="#6C43F5" stroke-width="2"></path><path d="M27.35 11.709c-.305.038-.515.025-.822.085-3.087.594-5.07-.524-6.77-3.5-1.02 1.955-4.208 3.5-6.826 3.5-1.289 0-2.398-.265-3.51-.845" stroke="#6C43F5" stroke-width="2"></path></svg>