<svg viewBox="0 0 48 49" fill="none" xmlns="http://www.w3.org/2000/svg" id="scifi"><path d="M37.597 16.534A15.44 15.44 0 0 1 38.8 22.53c0 8.52-6.868 15.423-15.339 15.423a15.22 15.22 0 0 1-7.146-1.77m-3.487-2.536A15.42 15.42 0 0 1 8.122 22.53c0-8.517 6.868-15.422 15.339-15.422 4.765 0 9.023 2.186 11.836 5.614" stroke="#6C43F5" stroke-width="2"></path><path d="M9.633 31.016l-7.046 6.51c-.8.805-.8 2.106 0 2.908a2.033 2.033 0 0 0 2.892 0L43.315 5.477a2.066 2.066 0 0 0 0-2.908 2.035 2.035 0 0 0-2.892 0l-7.931 7.493" stroke="#6C43F5" stroke-width="2"></path><path d="M1.987 40.01a4.1 4.1 0 0 0 1.199 2.907 4.074 4.074 0 0 0 5.784 0l36.813-33.93a4.128 4.128 0 0 0 0-5.815 4.064 4.064 0 0 0-2.894-1.205m-37.911 0v6.299M1.91 5.05h6.136m27.611 37.015c3.387 0 6.135-2.763 6.135-6.169m0 0c0 3.406 2.75 6.17 6.136 6.17m-6.136 6.168c0-3.407-2.748-6.169-6.135-6.169m12.271 0c-3.387 0-6.136 2.762-6.136 6.17" stroke="#6C43F5" stroke-width="2"></path></svg>