<svg viewBox="0 0 42 41" fill="none" xmlns="http://www.w3.org/2000/svg" id="classics"><path d="M33.78 8.077a1.72 1.72 0 0 0-1.714-1.724 3.438 3.438 0 0 0-3.43 3.448c0 2.856 2.303 5.173 5.145 5.173 3.788 0 6.859-3.09 6.859-6.897 0-3.81-3.071-6.897-6.86-6.897H8.059c-3.79 0-6.86 3.087-6.86 6.897 0 3.807 3.07 6.897 6.86 6.897 2.841 0 5.144-2.317 5.144-5.173a3.437 3.437 0 0 0-3.43-3.448 1.72 1.72 0 0 0-1.714 1.724m5.143 6.238v26.522m15.434-26.522v26.522M18.347 14.315v26.522m5.145-26.522v26.522M12.613 14h18.112M13.202 9.801h15.434" stroke="#6C43F5" stroke-width="2"></path></svg>