<svg viewBox="0 0 46 43" fill="none" xmlns="http://www.w3.org/2000/svg" id="fiction"><path fill-rule="evenodd" clip-rule="evenodd" d="M22.72 25.227c1.68 0 .56 1.126 3.92 1.126 3.359 0 6.72-6.758 6.72-11.26 0-4.507-2.802-7.886-6.16-7.886-3.36 0-3.36 1.126-4.48 1.126-1.121 0-2.2-1.166-4.771-1.166 0 8.633-5.87 7.924-5.87 7.924 0 4.504 3.36 11.262 6.719 11.262 3.362 0 2.24-1.127 3.921-1.127z" stroke="#6C43F5" stroke-width="2"></path><path d="M22.72 8.334V6.342c0-1.238-.59-2.87-1.91-3.72-.935-.602-1.902-.629-2.777-.629" stroke="#6C43F5" stroke-width="2"></path><path fill-rule="evenodd" clip-rule="evenodd" d="M23.482 7.167c3.079 0 5.574-2.554 5.574-5.703-3.078 0-5.574 2.556-5.574 5.703z" stroke="#6C43F5" stroke-width="2"></path><path d="M.775 41.702h9.54c2.107 0 3.817-1.718 3.817-3.838v-3.837c0-2.118-1.71-3.837-3.816-3.837H.775" stroke="#6C43F5" stroke-width="2"></path><path d="M10.316 41.702H41.8c2.107 0 2.863-1.717 2.863-3.837v-3.838c0-2.118-.756-3.837-2.863-3.837H10.316m26.714 0v11.512M33.215 30.19v11.512M25.581 30.19v11.512M21.765 30.19v11.512m-11.449-3.838H2.683m7.633-3.837H2.683" stroke="#6C43F5" stroke-width="2"></path></svg>