<svg width="156" height="43" viewBox="0 0 156 43" fill="none" xmlns="http://www.w3.org/2000/svg">
<path d="M59.0643 1C60.7929 1 62.31 1.34901 63.6156 2.05161C64.9213 2.75421 65.9373 3.72775 66.659 4.98141C67.3854 6.23508 67.7486 7.70916 67.7486 9.40367C67.7486 11.0155 67.4038 12.4804 66.7234 13.7892C66.0384 15.1026 65.0592 16.1404 63.7903 16.9027C62.5169 17.6696 60.9998 18.0507 59.239 18.0507C58.1127 18.0507 56.991 17.9956 55.8738 17.8808C54.7567 17.766 53.6993 17.6099 52.7063 17.417V1.63372C53.7177 1.47299 54.7521 1.32604 55.8141 1.19287C56.8714 1.06429 57.9564 1 59.0643 1ZM59.1379 4.17778C58.6506 4.17778 58.1357 4.20074 57.5978 4.25126C57.0599 4.30177 56.5634 4.36606 56.1037 4.44872V14.6112C56.591 14.7076 57.1013 14.7765 57.6346 14.8178C58.1633 14.8592 58.6644 14.8775 59.1379 14.8775C60.2136 14.8775 61.1331 14.6433 61.9008 14.1795C62.6686 13.7157 63.2524 13.0774 63.6616 12.26C64.0708 11.4472 64.273 10.5333 64.273 9.52307C64.273 8.48065 64.0708 7.56221 63.6616 6.76318C63.2524 5.96414 62.6686 5.33501 61.9008 4.8712C61.1377 4.40739 60.2136 4.17778 59.1379 4.17778Z" fill="#192962"/>
<path d="M79.0993 14.7076V17.7614H70.1714V14.7076H72.9343V4.44411H70.1714V1.39032H79.0993V4.44411H76.3363V14.7076H79.0993Z" fill="#192962"/>
<path d="M90.7671 8.89395H96.3435V15.5664C95.6585 16.2827 94.7897 16.8889 93.7369 17.3849C92.6841 17.8808 91.498 18.1288 90.1786 18.1288C89.0063 18.1288 87.8938 17.9222 86.8502 17.5043C85.8066 17.091 84.8871 16.5032 84.0872 15.7455C83.2873 14.9878 82.6621 14.0877 82.2023 13.0453C81.7472 12.0028 81.5173 10.8456 81.5173 9.57359C81.5173 8.30155 81.7472 7.14892 82.2023 6.10191C82.6575 5.05948 83.2873 4.15942 84.0872 3.40171C84.8871 2.644 85.8066 2.0562 86.8502 1.64291C87.8938 1.22961 89.0017 1.01837 90.1786 1.01837C91.2038 1.01837 92.0957 1.16073 92.845 1.44544C93.5944 1.73016 94.2472 2.1159 94.8035 2.60726V6.02843C94.4127 5.73453 94.0035 5.44982 93.5806 5.17429C93.1576 4.89876 92.6795 4.66915 92.1508 4.49005C91.6221 4.31096 90.9969 4.22371 90.2797 4.22371C89.3005 4.22371 88.4133 4.45791 87.6133 4.9309C86.8134 5.4039 86.179 6.03761 85.7055 6.83665C85.2319 7.63569 84.9975 8.54494 84.9975 9.57359C84.9975 10.5839 85.2319 11.4931 85.7055 12.2967C86.179 13.105 86.8134 13.7387 87.6133 14.2025C88.4133 14.6663 89.3005 14.9005 90.2797 14.9005C91.0291 14.9005 91.6313 14.8133 92.0911 14.6296C92.5462 14.4505 92.9048 14.253 93.1668 14.0418L93.1898 11.3278H90.7671V8.89395Z" fill="#192962"/>
<path d="M108.37 14.7076V17.7614H99.4421V14.7076H102.205V4.44411H99.4421V1.39032H108.37V4.44411H105.607V14.7076H108.37Z" fill="#192962"/>
<path d="M125.224 1.39032V4.44411H119.987V17.6879H116.613V4.44411H111.377V1.39032H125.224Z" fill="#192962"/>
<path d="M132.731 1.27094L140.363 17.7614H136.377L135.131 14.7076H128.649L127.403 17.7614H123.417L131.048 1.27094H132.731V1.27094ZM131.899 6.81369L129.844 11.8237H133.954L131.899 6.81369Z" fill="#192962"/>
<path d="M146.454 1.39032V14.7076H154.646V17.7614H143.052V1.39032H146.454Z" fill="#192962"/>
<path d="M58.8943 22.0184C60.1678 22.0184 61.2757 22.2204 62.2227 22.6154C63.1698 23.0149 63.9053 23.5659 64.4386 24.2639C64.9673 24.9665 65.2339 25.7702 65.2339 26.684C65.2339 27.4968 65.0179 28.2224 64.5857 28.8607C64.1536 29.4944 63.6111 29.9858 62.9583 30.3256C63.4456 30.4542 63.9191 30.67 64.3789 30.9731C64.834 31.2762 65.211 31.6757 65.5052 32.1717C65.7994 32.6676 65.9465 33.3013 65.9465 34.0636C65.9465 34.9775 65.6707 35.8087 65.1144 36.5664C64.5582 37.3241 63.7858 37.9303 62.7928 38.3849C61.7998 38.8395 60.6413 39.0691 59.3173 39.0691C58.6001 39.0691 57.8231 39.0416 56.9956 38.9819C56.1635 38.9268 55.3728 38.8441 54.6234 38.7385C53.8741 38.6329 53.2351 38.5226 52.7156 38.4078V22.6291C53.6304 22.4317 54.6143 22.2847 55.6762 22.1791C56.7244 22.0689 57.8002 22.0184 58.8943 22.0184ZM58.8943 25.1181C57.8507 25.1181 56.9221 25.2007 56.1038 25.3615V29.3199H59.161C59.9931 29.3199 60.6505 29.1179 61.1286 28.7092C61.6113 28.3005 61.8504 27.7815 61.8504 27.1432C61.8504 26.4911 61.5607 25.9906 60.9815 25.6416C60.4068 25.2926 59.7126 25.1181 58.8943 25.1181ZM56.1084 35.7214C56.5635 35.8362 57.0922 35.9143 57.6852 35.9556C58.2783 35.9969 58.7564 36.0153 59.115 36.0153C60.062 36.0153 60.839 35.827 61.4504 35.4551C62.0618 35.0785 62.3698 34.5504 62.3698 33.8662C62.3698 33.1819 62.0526 32.6722 61.4182 32.337C60.7838 32.0018 60.016 31.8364 59.1196 31.8364H56.113V35.7214H56.1084Z" fill="#192962"/>
<path d="M76.9476 22.0413C78.1199 22.0413 79.2233 22.248 80.2485 22.6659C81.2736 23.0792 82.1839 23.6669 82.9746 24.4247C83.7654 25.1824 84.386 26.0824 84.8319 27.1249C85.2825 28.1673 85.5031 29.3245 85.5031 30.5965C85.5031 31.8686 85.2779 33.0258 84.8319 34.0682C84.3814 35.1106 83.7654 36.0107 82.9746 36.7684C82.1839 37.5261 81.2736 38.1139 80.2485 38.5272C79.2233 38.9405 78.1199 39.1518 76.9476 39.1518C75.7753 39.1518 74.6674 38.9451 73.633 38.5272C72.5986 38.1139 71.6837 37.5261 70.893 36.7684C70.1023 36.0107 69.4816 35.1106 69.0357 34.0682C68.5852 33.0258 68.3645 31.8686 68.3645 30.5965C68.3645 29.3245 68.5898 28.1719 69.0357 27.1249C69.4862 26.0824 70.1023 25.1824 70.893 24.4247C71.6837 23.6669 72.5986 23.0792 73.633 22.6659C74.6674 22.248 75.7707 22.0413 76.9476 22.0413ZM76.9476 25.2421C75.9684 25.2421 75.0903 25.4763 74.318 25.9493C73.541 26.4223 72.9342 27.056 72.4975 27.855C72.0561 28.654 71.8354 29.5633 71.8354 30.5919C71.8354 31.6022 72.0561 32.5115 72.4975 33.3151C72.9388 34.1233 73.5456 34.757 74.318 35.2209C75.0903 35.6847 75.9684 35.9189 76.9476 35.9189C77.9268 35.9189 78.8003 35.6847 79.5635 35.2209C80.3312 34.757 80.9334 34.1233 81.3748 33.3151C81.8161 32.5069 82.0368 31.6022 82.0368 30.5919C82.0368 29.5679 81.8161 28.654 81.3748 27.855C80.9334 27.056 80.3312 26.4223 79.5635 25.9493C78.7957 25.4763 77.9268 25.2421 76.9476 25.2421Z" fill="#192962"/>
<path d="M96.2931 22.0413C97.4654 22.0413 98.5687 22.248 99.5939 22.6659C100.619 23.0792 101.529 23.6669 102.32 24.4247C103.111 25.1824 103.731 26.0824 104.177 27.1249C104.628 28.1673 104.849 29.3245 104.849 30.5965C104.849 31.8686 104.623 33.0258 104.177 34.0682C103.727 35.1106 103.111 36.0107 102.32 36.7684C101.529 37.5261 100.619 38.1139 99.5939 38.5272C98.5687 38.9405 97.4654 39.1518 96.2931 39.1518C95.1208 39.1518 94.0128 38.9451 92.9784 38.5272C91.9441 38.1139 91.0292 37.5261 90.2385 36.7684C89.4477 36.0107 88.8271 35.1106 88.3812 34.0682C87.9306 33.0258 87.71 31.8686 87.71 30.5965C87.71 29.3245 87.9352 28.1719 88.3812 27.1249C88.8317 26.0824 89.4477 25.1824 90.2385 24.4247C91.0292 23.6669 91.9441 23.0792 92.9784 22.6659C94.0174 22.248 95.1208 22.0413 96.2931 22.0413ZM96.2931 25.2421C95.3138 25.2421 94.4358 25.4763 93.6634 25.9493C92.8865 26.4223 92.2797 27.056 91.8429 27.855C91.4016 28.654 91.1809 29.5633 91.1809 30.5919C91.1809 31.6022 91.4016 32.5115 91.8429 33.3151C92.2842 34.1233 92.8911 34.757 93.6634 35.2209C94.4358 35.6847 95.3138 35.9189 96.2931 35.9189C97.2723 35.9189 98.1458 35.6847 98.9089 35.2209C99.6767 34.757 100.279 34.1233 100.72 33.3151C101.162 32.5069 101.382 31.6022 101.382 30.5919C101.382 29.5679 101.162 28.654 100.72 27.855C100.279 27.056 99.6767 26.4223 98.9089 25.9493C98.1458 25.4763 97.2723 25.2421 96.2931 25.2421Z" fill="#192962"/>
<path d="M111.804 22.4087V29.7378L118.043 22.4087H122.346L115.914 29.5679L123.081 38.7798H118.631L113.592 32.1579L111.809 34.1601V38.7798H108.407V22.4087H111.804Z" fill="#192962"/>
<path d="M126.543 36.2587C126.943 36.2587 127.283 36.4011 127.564 36.6812C127.844 36.9613 127.987 37.3057 127.987 37.7006C127.987 38.0864 127.844 38.4216 127.564 38.7109C127.283 39.0002 126.939 39.1426 126.543 39.1426C126.143 39.1426 125.803 39.0002 125.523 38.7109C125.242 38.4216 125.1 38.0864 125.1 37.7006C125.1 37.3011 125.242 36.9613 125.523 36.6812C125.803 36.4011 126.143 36.2587 126.543 36.2587Z" fill="#192962"/>
<path d="M138.441 37.0256V38.7798H131.913V37.0256H134.248V26.7116H131.913V24.9574H138.441V26.7116H136.105V37.0256H138.441Z" fill="#192962"/>
<path d="M148.206 24.6451C149.254 24.6451 150.215 24.8334 151.097 25.2145C151.98 25.5911 152.748 26.11 153.41 26.7713C154.072 27.4325 154.582 28.1994 154.95 29.0719C155.313 29.9444 155.497 30.8767 155.497 31.8686C155.497 32.8605 155.313 33.7927 154.95 34.6652C154.587 35.5377 154.072 36.3046 153.41 36.9659C152.748 37.6271 151.975 38.1461 151.097 38.5226C150.215 38.8992 149.254 39.0921 148.206 39.0921C147.157 39.0921 146.197 38.9038 145.314 38.5226C144.431 38.1461 143.663 37.6271 143.001 36.9659C142.339 36.3046 141.829 35.5377 141.461 34.6652C141.098 33.7927 140.914 32.8605 140.914 31.8686C140.914 30.8767 141.098 29.949 141.461 29.0719C141.825 28.1994 142.339 27.4325 143.001 26.7713C143.663 26.11 144.431 25.5911 145.314 25.2145C146.197 24.838 147.162 24.6451 148.206 24.6451ZM148.206 26.4636C147.171 26.4636 146.252 26.6978 145.438 27.1662C144.624 27.6346 143.985 28.2775 143.516 29.0949C143.047 29.9123 142.813 30.8399 142.813 31.8686C142.813 32.8972 143.047 33.8202 143.516 34.6331C143.985 35.4459 144.624 36.0888 145.438 36.5618C146.252 37.0348 147.171 37.2736 148.206 37.2736C149.24 37.2736 150.159 37.0348 150.973 36.5618C151.787 36.0888 152.426 35.4459 152.895 34.6331C153.364 33.8202 153.598 32.9018 153.598 31.8686C153.598 30.8353 153.364 29.9123 152.895 29.0949C152.426 28.2775 151.787 27.6346 150.973 27.1662C150.164 26.6978 149.24 26.4636 148.206 26.4636Z" fill="#192962"/>
<path d="M7.42262 40.6185C6.08909 41.0941 4.78394 39.8631 4.78394 38.1845V4.97567C4.78394 3.38098 6.14584 2.12201 7.42262 2.42976V40.6185Z" fill="#6C4BF2"/>
<path d="M2.90753 37.9326C1.77261 38.3523 0.637695 37.2892 0.637695 35.8344V7.32572C0.637695 5.95485 1.80099 4.89172 2.90753 5.14351V37.9326Z" fill="#6C4BF2"/>
<path fill-rule="evenodd" clip-rule="evenodd" d="M12.9876 42.8846L36.8492 36.1421C38.0692 35.7784 38.9488 34.6593 38.9488 33.4003V7.35368C38.9488 5.9828 37.9557 4.80776 36.5938 4.55597L12.7322 0.0516629C10.9447 -0.284062 9.29907 1.05884 9.29907 2.84937V40.1428C9.29907 42.0452 11.1433 43.4161 12.9876 42.8846ZM20.4781 27.5811V15.4111C20.4781 14.7676 21.0739 14.348 21.5562 14.6557L30.3235 20.0833C30.8058 20.391 30.8626 21.2024 30.3802 21.5661L21.6413 28.3085C21.1306 28.7002 20.4781 28.2806 20.4781 27.5811Z" fill="#6C4BF2"/>
</svg>
